<svg width="260" height="184" viewBox="0 -38 260 260" fill="none" xmlns="http://www.w3.org/2000/svg">
<path d="M17.7189 128.405L34.8123 42.9387C37.8287 27.8564 51.0714 17 66.4524 17H210.641C231.003 17 246.274 35.6283 242.281 55.5947L225.188 141.061C222.171 156.144 208.929 167 193.548 167H49.359C28.9972 167 13.7257 148.372 17.7189 128.405Z" fill="url(#paint0_linear_3712_3)" stroke="url(#paint1_linear_3712_3)" stroke-width="32.2667"/>
<path d="M66.3623 91.9726L70.5337 72.5059C73.7217 57.6287 86.8692 47 102.084 47H162.086C182.628 47 197.94 65.9411 193.636 86.0275L189.465 105.494C186.277 120.371 173.129 131 157.914 131H97.9127C77.3703 131 62.0581 112.059 66.3623 91.9726Z" fill="url(#paint2_linear_3712_3)"/>
<path d="M85.1317 76.2114L85.7539 72.4781C87.0504 64.6988 93.7811 58.9971 101.668 58.9971H164.956C174.925 58.9971 182.509 67.9489 180.87 77.7827L180.248 81.516C178.951 89.2953 172.22 94.9971 164.334 94.9971H101.045C91.0761 94.9971 83.4927 86.0452 85.1317 76.2114Z" fill="white"/>
<defs>
<linearGradient id="paint0_linear_3712_3" x1="148" y1="23" x2="130" y2="167" gradientUnits="userSpaceOnUse">
<stop stop-color="#CDEDFC"/>
<stop offset="1" stop-color="#BFE3F9"/>
</linearGradient>
<linearGradient id="paint1_linear_3712_3" x1="46" y1="11" x2="268" y2="215" gradientUnits="userSpaceOnUse">
<stop stop-color="#3BCAF4"/>
<stop offset="1" stop-color="#006AAA"/>
</linearGradient>
<linearGradient id="paint2_linear_3712_3" x1="93.9993" y1="35" x2="216.411" y2="176.919" gradientUnits="userSpaceOnUse">
<stop stop-color="#5ED0F2"/>
<stop offset="1" stop-color="#1494DF"/>
</linearGradient>
</defs>
</svg>
